<?xml version="1.0" encoding="UTF-8" standalone="no"?>
<!-- Created with Inkscape (http://www.inkscape.org/) -->

<svg
   width="210mm"
   height="297mm"
   viewBox="0 0 210 297"
   version="1.1"
   id="svg5"
   inkscape:version="1.2.2 (b0a84865, 2022-12-01)"
   sodipodi:docname="Student Hub Icon.svg"
   inkscape:export-filename="Student Hub Icon.png"
   inkscape:export-xdpi="87.163406"
   inkscape:export-ydpi="87.163406"
   xmlns:inkscape="http://www.inkscape.org/namespaces/inkscape"
   xmlns:sodipodi="http://sodipodi.sourceforge.net/DTD/sodipodi-0.dtd"
   xmlns="http://www.w3.org/2000/svg"
   xmlns:svg="http://www.w3.org/2000/svg">
  <sodipodi:namedview
     id="namedview7"
     pagecolor="#ffffff"
     bordercolor="#111111"
     borderopacity="1"
     inkscape:showpageshadow="0"
     inkscape:pageopacity="0"
     inkscape:pagecheckerboard="false"
     inkscape:deskcolor="#d1d1d1"
     inkscape:document-units="mm"
     showgrid="false"
     showborder="false"
     inkscape:zoom="3.8042194"
     inkscape:cx="82.539929"
     inkscape:cy="108.03793"
     inkscape:window-width="1269"
     inkscape:window-height="796"
     inkscape:window-x="171"
     inkscape:window-y="25"
     inkscape:window-maximized="0"
     inkscape:current-layer="layer1" />
  <defs
     id="defs2" />
  <g
     inkscape:label="Layer 1"
     inkscape:groupmode="layer"
     id="layer1">
    <g
       id="g6579"
       inkscape:export-filename="Student Hub Icon.png"
       inkscape:export-xdpi="404.73874"
       inkscape:export-ydpi="404.73874">
      <rect
         style="fill:#f9f9f9;stroke:none;stroke-width:1.32292;stroke-linecap:round;stroke-linejoin:round;stroke-dasharray:none;stroke-dashoffset:0;stroke-opacity:1"
         id="rect1371"
         width="37.904953"
         height="32.131344"
         x="16.048929"
         y="15.21431"
         rx="6.1118188"
         ry="6.8791652" />
      <g
         id="g6564">
        <g
           id="g6443"
           transform="translate(-1.4771547,-2.4343781)">
          <rect
             style="fill:#002255;fill-opacity:1;stroke:#4d4d4d;stroke-width:0;stroke-linecap:round;stroke-linejoin:round"
             id="rect3460"
             width="23.708307"
             height="13.858514"
             x="24.624407"
             y="26.785103"
             rx="5.1574435"
             ry="4.4648991" />
          <path
             d="m 32.346651,29.480246 q 0.165472,0 0.272541,0.116803 0.116806,0.10707 0.116806,0.27254 v 7.689539 q 0,0.165471 -0.116806,0.282274 -0.107069,0.10707 -0.272541,0.10707 -0.165473,0 -0.282272,-0.10707 -0.10707,-0.116803 -0.10707,-0.282274 v -4.74026 h -4.350918 v 4.74026 q 0,0.165471 -0.1168,0.282274 -0.107069,0.10707 -0.272541,0.10707 -0.165472,0 -0.282278,-0.10707 -0.107069,-0.116803 -0.107069,-0.282274 v -7.689539 q 0,-0.16547 0.107069,-0.27254 0.116806,-0.116803 0.282278,-0.116803 0.165472,0 0.272541,0.116803 0.1168,0.10707 0.1168,0.27254 v 2.170592 h 4.350918 v -2.170592 q 0,-0.16547 0.10707,-0.27254 0.116799,-0.116803 0.282272,-0.116803 z"
             id="path3427"
             style="font-weight:bold;font-size:15.3346px;font-family:'DO 4 Brain';-inkscape-font-specification:'DO 4 Brain, Bold';text-align:center;text-anchor:middle;fill:#f9f9f9;fill-opacity:1;stroke:#4d4d4d;stroke-width:0;stroke-linecap:round;stroke-linejoin:round" />
          <path
             d="m 39.043359,32.040181 q 0.165472,0 0.272541,0.116803 0.116807,0.107069 0.116807,0.27254 v 5.129604 q 0,0.165471 -0.116807,0.282274 -0.107069,0.10707 -0.272541,0.10707 -0.165472,0 -0.282272,-0.10707 -0.107069,-0.116803 -0.107069,-0.282274 V 36.99458 q -0.408809,0.438011 -0.973359,0.700818 -0.554814,0.253074 -1.197235,0.253074 -0.613216,0 -1.158293,-0.233607 -0.535352,-0.233606 -0.93443,-0.632683 -0.399072,-0.399077 -0.632684,-0.934425 -0.233606,-0.545081 -0.233606,-1.158298 v -2.559935 q 0,-0.165471 0.107076,-0.27254 0.116799,-0.116803 0.282272,-0.116803 0.165472,0 0.272541,0.116803 0.1168,0.107069 0.1168,0.27254 v 2.559935 q 0,0.447746 0.165472,0.846823 0.175203,0.399077 0.467212,0.700819 0.30174,0.292008 0.700818,0.467212 0.399078,0.165471 0.846822,0.165471 0.447744,0 0.837092,-0.165471 0.399078,-0.175204 0.691087,-0.467212 0.30174,-0.301742 0.467212,-0.700819 0.175203,-0.399077 0.175203,-0.846823 v -2.559935 q 0,-0.165471 0.107069,-0.27254 0.1168,-0.116803 0.282272,-0.116803 z"
             id="path3429"
             style="font-weight:bold;font-size:15.3346px;font-family:'DO 4 Brain';-inkscape-font-specification:'DO 4 Brain, Bold';text-align:center;text-anchor:middle;fill:#f9f9f9;fill-opacity:1;stroke:#4d4d4d;stroke-width:0;stroke-linecap:round;stroke-linejoin:round" />
          <path
             d="m 43.180133,37.169784 q 0.44775,0 0.837091,-0.165471 0.399079,-0.175204 0.691088,-0.467212 0.301739,-0.301742 0.467212,-0.700819 0.175202,-0.399077 0.175202,-0.846823 0,-0.447745 -0.175202,-0.837089 -0.165473,-0.399077 -0.467212,-0.691085 -0.292009,-0.301741 -0.691088,-0.467212 -0.389341,-0.175205 -0.837091,-0.175205 -0.447745,0 -0.846823,0.175205 -0.399072,0.165471 -0.700818,0.467212 -0.292002,0.292008 -0.467212,0.691085 -0.165472,0.389344 -0.165472,0.837089 0,0.447746 0.165472,0.846823 0.17521,0.399077 0.467212,0.700819 0.301746,0.292008 0.700818,0.467212 0.399078,0.165471 0.846823,0.165471 z m 0,-5.129603 q 0.613216,0 1.148568,0.233606 0.535346,0.233606 0.934424,0.632684 0.399078,0.399077 0.632684,0.934424 0.233606,0.535348 0.233606,1.148564 0,0.613217 -0.233606,1.158298 -0.233606,0.535348 -0.632684,0.934425 -0.399078,0.399077 -0.934424,0.632683 -0.535352,0.233607 -1.148568,0.233607 -0.613217,0 -1.158293,-0.233607 -0.535352,-0.233606 -0.934424,-0.632683 -0.399078,-0.399077 -0.632684,-0.934425 -0.233606,-0.545081 -0.233606,-1.158298 v -5.11987 q 0,-0.16547 0.107069,-0.27254 0.1168,-0.116803 0.282272,-0.116803 0.165472,0 0.272541,0.116803 0.1168,0.10707 0.1168,0.27254 v 3.124484 q 0.408815,-0.438012 0.963629,-0.691085 0.56455,-0.262807 1.216696,-0.262807 z"
             id="path3431"
             style="font-weight:bold;font-size:15.3346px;font-family:'DO 4 Brain';-inkscape-font-specification:'DO 4 Brain, Bold';text-align:center;text-anchor:middle;fill:#f9f9f9;fill-opacity:1;stroke:#4d4d4d;stroke-width:0;stroke-linecap:round;stroke-linejoin:round" />
        </g>
        <g
           id="Education"
           transform="matrix(-0.19140958,0.06192167,0.06192167,0.19140958,28.289214,19.356974)"
           style="stroke-width:21.9197">
          <path
             class="cls-1"
             d="m 24.5,34 v 0 C 15.94,34 9,30.154 9,24 V 14 h 31 v 10 c 0,5.171 -6.94,10 -15.5,10 z"
             id="path1140"
             style="fill:#203442;stroke-width:21.9197" />
          <path
             class="cls-2"
             d="M 46.171,9.991 27.3,0.764 a 7.518,7.518 0 0 0 -6.6,0 L 1.829,9.991 a 3.26,3.26 0 0 0 0.15,5.927 L 4.5,17 21.043,24.079 a 7.517,7.517 0 0 0 5.914,0 L 43.5,17 46.021,15.922 a 3.26,3.26 0 0 0 0.15,-5.931 z"
             id="path1142"
             style="fill:#4c5665;stroke-width:21.9197" />
          <path
             class="cls-3"
             d="M 40,38 A 1,1 0 0 1 39,37 V 19.361 L 24.918,12.14 a 1.0004744,1.0004744 0 1 1 0.914,-1.78 L 41,18.139 V 37 a 1,1 0 0 1 -1,1 z"
             id="path1144"
             style="fill:#ecf0f1;stroke-width:21.9197" />
          <ellipse
             class="cls-1"
             cx="24.5"
             cy="11"
             rx="4.5"
             ry="3"
             id="ellipse1146"
             style="fill:#203442;stroke-width:21.9197" />
          <circle
             class="cls-4"
             cx="40"
             cy="39"
             r="4"
             id="circle1148"
             style="fill:#face53;stroke-width:21.9197" />
        </g>
      </g>
    </g>
    <rect
       style="fill:#f9f9f9;fill-opacity:1;stroke:#4d4d4d;stroke-width:0;stroke-linecap:round;stroke-linejoin:round"
       id="rect3583"
       width="2.5212517"
       height="7.8814696e-07"
       x="162.72791"
       y="33.088905"
       rx="6.1118174"
       ry="7.8814696e-07" />
  </g>
</svg>
