<?xml version="1.0" encoding="UTF-8" standalone="no"?>
<!-- Created with Inkscape (http://www.inkscape.org/) -->

<svg
   width="210mm"
   height="297mm"
   viewBox="0 0 210 297"
   version="1.1"
   id="svg5"
   inkscape:version="1.2.2 (b0a84865, 2022-12-01)"
   sodipodi:docname="Student Hub.svg"
   inkscape:export-filename="Standford University.pdf"
   inkscape:export-xdpi="153.60001"
   inkscape:export-ydpi="153.60001"
   xmlns:inkscape="http://www.inkscape.org/namespaces/inkscape"
   xmlns:sodipodi="http://sodipodi.sourceforge.net/DTD/sodipodi-0.dtd"
   xmlns="http://www.w3.org/2000/svg"
   xmlns:svg="http://www.w3.org/2000/svg">
  <sodipodi:namedview
     id="namedview7"
     pagecolor="#ffffff"
     bordercolor="#111111"
     borderopacity="1"
     inkscape:showpageshadow="0"
     inkscape:pageopacity="0"
     inkscape:pagecheckerboard="false"
     inkscape:deskcolor="#d1d1d1"
     inkscape:document-units="mm"
     showgrid="false"
     showborder="false"
     inkscape:zoom="1.1208658"
     inkscape:cx="330.10196"
     inkscape:cy="72.265565"
     inkscape:window-width="1269"
     inkscape:window-height="802"
     inkscape:window-x="171"
     inkscape:window-y="25"
     inkscape:window-maximized="0"
     inkscape:current-layer="layer1" />
  <defs
     id="defs2" />
  <g
     inkscape:label="Layer 1"
     inkscape:groupmode="layer"
     id="layer1">
    <g
       id="g384"
       inkscape:export-filename="Student Hub.png"
       inkscape:export-xdpi="153.60001"
       inkscape:export-ydpi="153.60001">
      <rect
         style="fill:#f9f9f9;stroke:none;stroke-width:1.32292;stroke-linecap:round;stroke-linejoin:round;stroke-dasharray:none;stroke-dashoffset:0;stroke-opacity:1"
         id="rect1371"
         width="178.59375"
         height="33.713486"
         x="17.362387"
         y="16.232162"
         rx="6.1118178"
         ry="6.8791652" />
      <g
         id="g359"
         transform="translate(0.91521512)">
        <g
           id="g320">
          <rect
             style="fill:#002255;fill-opacity:1;stroke:#4d4d4d;stroke-width:0;stroke-linecap:round;stroke-linejoin:round"
             id="rect3460"
             width="37.350796"
             height="21.833128"
             x="123.81601"
             y="22.172342"
             rx="6.1118174"
             ry="6.8791652" />
          <g
             id="g3456"
             style="fill:#f9f9f9;fill-opacity:1">
            <path
               d="m 135.98187,26.418354 q 0.26069,0 0.42937,0.184015 0.18402,0.168681 0.18402,0.429369 v 12.114335 q 0,0.260688 -0.18402,0.444703 -0.16868,0.168681 -0.42937,0.168681 -0.26069,0 -0.4447,-0.168681 -0.16868,-0.184015 -0.16868,-0.444703 v -7.467951 h -6.85457 v 7.467951 q 0,0.260688 -0.18401,0.444703 -0.16868,0.168681 -0.42937,0.168681 -0.26069,0 -0.44471,-0.168681 -0.16868,-0.184015 -0.16868,-0.444703 V 27.031738 q 0,-0.260688 0.16868,-0.429369 0.18402,-0.184015 0.44471,-0.184015 0.26069,0 0.42937,0.184015 0.18401,0.168681 0.18401,0.429369 v 3.419616 h 6.85457 v -3.419616 q 0,-0.260688 0.16868,-0.429369 0.18401,-0.184015 0.4447,-0.184015 z"
               id="path3427"
               style="font-weight:bold;font-size:15.3346px;font-family:'DO 4 Brain';-inkscape-font-specification:'DO 4 Brain, Bold';text-align:center;text-anchor:middle;fill:#f9f9f9;fill-opacity:1;stroke:#4d4d4d;stroke-width:0;stroke-linecap:round;stroke-linejoin:round" />
            <path
               d="m 146.53207,30.451354 q 0.26069,0 0.42937,0.184015 0.18402,0.168681 0.18402,0.429369 v 8.081335 q 0,0.260688 -0.18402,0.444703 -0.16868,0.168681 -0.42937,0.168681 -0.26069,0 -0.4447,-0.168681 -0.16868,-0.184015 -0.16868,-0.444703 v -0.889407 q -0.64405,0.690057 -1.53346,1.104091 -0.87407,0.3987 -1.88616,0.3987 -0.96608,0 -1.82481,-0.368031 -0.84341,-0.36803 -1.47213,-0.996749 -0.62871,-0.628718 -0.99675,-1.472121 -0.36803,-0.858738 -0.36803,-1.824818 v -4.033 q 0,-0.260688 0.16869,-0.429369 0.18401,-0.184015 0.4447,-0.184015 0.26069,0 0.42937,0.184015 0.18401,0.168681 0.18401,0.429369 v 4.033 q 0,0.705392 0.26069,1.33411 0.27602,0.628719 0.73606,1.104092 0.47537,0.460038 1.10409,0.73606 0.62872,0.260689 1.33411,0.260689 0.70539,0 1.31878,-0.260689 0.62872,-0.276022 1.08876,-0.73606 0.47537,-0.475373 0.73606,-1.104092 0.27602,-0.628718 0.27602,-1.33411 v -4.033 q 0,-0.260688 0.16868,-0.429369 0.18401,-0.184015 0.4447,-0.184015 z"
               id="path3429"
               style="font-weight:bold;font-size:15.3346px;font-family:'DO 4 Brain';-inkscape-font-specification:'DO 4 Brain, Bold';text-align:center;text-anchor:middle;fill:#f9f9f9;fill-opacity:1;stroke:#4d4d4d;stroke-width:0;stroke-linecap:round;stroke-linejoin:round" />
            <path
               d="m 153.04927,38.532689 q 0.7054,0 1.31878,-0.260689 0.62872,-0.276022 1.08876,-0.73606 0.47537,-0.475373 0.73606,-1.104092 0.27602,-0.628718 0.27602,-1.33411 0,-0.705392 -0.27602,-1.318776 -0.26069,-0.628718 -0.73606,-1.088756 -0.46004,-0.475373 -1.08876,-0.736061 -0.61338,-0.276023 -1.31878,-0.276023 -0.70539,0 -1.33411,0.276023 -0.62871,0.260688 -1.10409,0.736061 -0.46003,0.460038 -0.73606,1.088756 -0.26069,0.613384 -0.26069,1.318776 0,0.705392 0.26069,1.33411 0.27603,0.628719 0.73606,1.104092 0.47538,0.460038 1.10409,0.73606 0.62872,0.260689 1.33411,0.260689 z m 0,-8.081335 q 0.96608,0 1.80949,0.368031 0.8434,0.36803 1.47212,0.996749 0.62872,0.628718 0.99675,1.472121 0.36803,0.843403 0.36803,1.809483 0,0.96608 -0.36803,1.824818 -0.36803,0.843403 -0.99675,1.472121 -0.62872,0.628719 -1.47212,0.996749 -0.84341,0.368031 -1.80949,0.368031 -0.96608,0 -1.82481,-0.368031 -0.84341,-0.36803 -1.47212,-0.996749 -0.62872,-0.628718 -0.99675,-1.472121 -0.36803,-0.858738 -0.36803,-1.824818 v -8.066 q 0,-0.260688 0.16868,-0.429369 0.18401,-0.184015 0.4447,-0.184015 0.26069,0 0.42937,0.184015 0.18401,0.168681 0.18401,0.429369 v 4.922407 q 0.64406,-0.690057 1.51813,-1.088757 0.88941,-0.414034 1.91682,-0.414034 z"
               id="path3431"
               style="font-weight:bold;font-size:15.3346px;font-family:'DO 4 Brain';-inkscape-font-specification:'DO 4 Brain, Bold';text-align:center;text-anchor:middle;fill:#f9f9f9;fill-opacity:1;stroke:#4d4d4d;stroke-width:0;stroke-linecap:round;stroke-linejoin:round" />
          </g>
        </g>
        <g
           id="g336"
           transform="translate(0,1.9350596)">
          <g
             id="g3451">
            <path
               d="m 59.017597,30.451354 q 0.96608,0 1.809483,0.368031 0.843403,0.36803 1.472122,0.996749 0.628718,0.628718 0.996749,1.472121 0.36803,0.843403 0.36803,1.809483 0,0.96608 -0.36803,1.824818 -0.368031,0.843403 -0.996749,1.472121 -0.628719,0.628719 -1.472122,0.996749 -0.843403,0.368031 -1.809483,0.368031 h -4.048334 q -0.260688,0 -0.444704,-0.168681 -0.16868,-0.184015 -0.16868,-0.444703 0,-0.260689 0.16868,-0.429369 0.184016,-0.184015 0.444704,-0.184015 h 4.048334 q 0.705392,0 1.318776,-0.260689 0.628719,-0.276022 1.088757,-0.73606 0.475372,-0.475373 0.73606,-1.104092 0.276023,-0.628718 0.276023,-1.33411 0,-0.705392 -0.276023,-1.318776 -0.260688,-0.628718 -0.73606,-1.088756 -0.460038,-0.475373 -1.088757,-0.736061 -0.613384,-0.276023 -1.318776,-0.276023 H 56.99343 q -0.552046,0 -1.027418,-0.19935 -0.475373,-0.214684 -0.843403,-0.56738 -0.352696,-0.36803 -0.56738,-0.843403 -0.19935,-0.475372 -0.19935,-1.027418 0,-0.536711 0.19935,-1.012084 0.214684,-0.490707 0.56738,-0.843403 0.36803,-0.352696 0.843403,-0.552045 0.475372,-0.214685 1.027418,-0.214685 h 4.033 q 0.260688,0 0.429369,0.184015 0.184015,0.168681 0.184015,0.429369 0,0.260688 -0.184015,0.444704 -0.168681,0.16868 -0.429369,0.16868 h -4.033 q -0.291357,0 -0.552046,0.107342 -0.260688,0.107343 -0.460038,0.306692 -0.184015,0.184016 -0.291357,0.444704 -0.107342,0.245354 -0.107342,0.536711 0,0.291357 0.107342,0.552046 0.107342,0.260688 0.291357,0.460038 0.19935,0.184015 0.460038,0.291357 0.260689,0.107342 0.552046,0.107342 z"
               id="path3413"
               style="font-weight:bold;font-size:15.3346px;font-family:'DO 4 Brain';-inkscape-font-specification:'DO 4 Brain, Bold';text-align:center;text-anchor:middle;fill:#002255;stroke:#4d4d4d;stroke-width:0;stroke-linecap:round;stroke-linejoin:round" />
            <path
               d="m 71.239269,30.420685 q 0.260688,0 0.429369,0.184015 0.184015,0.184015 0.184015,0.444704 0,0.260688 -0.184015,0.444703 -0.168681,0.168681 -0.429369,0.168681 h -3.43495 v 7.483285 q 0,0.260688 -0.184016,0.444703 -0.16868,0.168681 -0.429368,0.168681 -0.260689,0 -0.444704,-0.168681 -0.16868,-0.184015 -0.16868,-0.444703 v -7.483285 h -1.058088 q -0.260688,0 -0.444703,-0.168681 -0.168681,-0.184015 -0.168681,-0.444703 0,-0.260689 0.168681,-0.444704 0.184015,-0.184015 0.444703,-0.184015 h 1.058088 v -3.373612 q 0,-0.260688 0.16868,-0.429369 0.184015,-0.184015 0.444704,-0.184015 0.260688,0 0.429368,0.184015 0.184016,0.168681 0.184016,0.429369 v 3.373612 z"
               id="path3415"
               style="font-weight:bold;font-size:15.3346px;font-family:'DO 4 Brain';-inkscape-font-specification:'DO 4 Brain, Bold';text-align:center;text-anchor:middle;fill:#002255;stroke:#4d4d4d;stroke-width:0;stroke-linecap:round;stroke-linejoin:round" />
            <path
               d="m 81.774125,30.451354 q 0.260688,0 0.429369,0.184015 0.184015,0.168681 0.184015,0.429369 v 8.081335 q 0,0.260688 -0.184015,0.444703 -0.168681,0.168681 -0.429369,0.168681 -0.260688,0 -0.444703,-0.168681 -0.168681,-0.184015 -0.168681,-0.444703 v -0.889407 q -0.644053,0.690057 -1.53346,1.104091 -0.874072,0.3987 -1.886156,0.3987 -0.96608,0 -1.824817,-0.368031 -0.843403,-0.36803 -1.472122,-0.996749 -0.628719,-0.628718 -0.996749,-1.472121 -0.36803,-0.858738 -0.36803,-1.824818 v -4.033 q 0,-0.260688 0.16868,-0.429369 0.184015,-0.184015 0.444704,-0.184015 0.260688,0 0.429368,0.184015 0.184016,0.168681 0.184016,0.429369 v 4.033 q 0,0.705392 0.260688,1.33411 0.276023,0.628719 0.736061,1.104092 0.475372,0.460038 1.104091,0.73606 0.628719,0.260689 1.33411,0.260689 0.705392,0 1.318776,-0.260689 0.628718,-0.276022 1.088756,-0.73606 0.475373,-0.475373 0.736061,-1.104092 0.276023,-0.628718 0.276023,-1.33411 v -4.033 q 0,-0.260688 0.168681,-0.429369 0.184015,-0.184015 0.444703,-0.184015 z"
               id="path3417"
               style="font-weight:bold;font-size:15.3346px;font-family:'DO 4 Brain';-inkscape-font-specification:'DO 4 Brain, Bold';text-align:center;text-anchor:middle;fill:#002255;stroke:#4d4d4d;stroke-width:0;stroke-linecap:round;stroke-linejoin:round" />
            <path
               d="m 88.291325,38.532689 q 0.705391,0 1.318775,-0.260689 0.628719,-0.276022 1.088757,-0.73606 0.475373,-0.475373 0.736061,-1.104092 0.276023,-0.628718 0.276023,-1.33411 0,-0.705392 -0.276023,-1.318776 -0.260688,-0.628718 -0.736061,-1.088756 -0.460038,-0.475373 -1.088757,-0.736061 -0.613384,-0.276023 -1.318775,-0.276023 -0.705392,0 -1.334111,0.276023 -0.628718,0.260688 -1.104091,0.736061 -0.460038,0.460038 -0.736061,1.088756 -0.260688,0.613384 -0.260688,1.318776 0,0.705392 0.260688,1.33411 0.276023,0.628719 0.736061,1.104092 0.475373,0.460038 1.104091,0.73606 0.628719,0.260689 1.334111,0.260689 z m 4.033,-12.114335 q 0.260688,0 0.429368,0.184015 0.184016,0.168681 0.184016,0.429369 v 8.066 q 0,0.96608 -0.368031,1.824818 -0.36803,0.843403 -0.996749,1.472121 -0.628718,0.628719 -1.472121,0.996749 -0.843403,0.368031 -1.809483,0.368031 -0.96608,0 -1.824818,-0.368031 -0.843403,-0.36803 -1.472121,-0.996749 -0.628719,-0.628718 -0.996749,-1.472121 -0.368031,-0.858738 -0.368031,-1.824818 0,-0.96608 0.368031,-1.809483 0.36803,-0.843403 0.996749,-1.472121 0.628718,-0.628719 1.472121,-0.996749 0.858738,-0.368031 1.824818,-0.368031 1.012083,0 1.886156,0.414034 0.889406,0.3987 1.53346,1.088757 v -4.922407 q 0,-0.260688 0.16868,-0.429369 0.184015,-0.184015 0.444704,-0.184015 z"
               id="path3419"
               style="font-weight:bold;font-size:15.3346px;font-family:'DO 4 Brain';-inkscape-font-specification:'DO 4 Brain, Bold';text-align:center;text-anchor:middle;fill:#002255;stroke:#4d4d4d;stroke-width:0;stroke-linecap:round;stroke-linejoin:round" />
            <path
               d="m 98.841526,31.678122 q -0.705392,0 -1.33411,0.276023 -0.628719,0.260688 -1.104091,0.736061 -0.460038,0.460038 -0.736061,1.088756 -0.260688,0.613384 -0.260688,1.318776 0,0.552046 0.153346,1.042753 0.16868,0.490707 0.460038,0.904741 l 4.75373,-4.753726 q -0.874076,-0.613384 -1.932164,-0.613384 z m 4.033004,2.806232 q 0.26068,0 0.42936,0.184015 0.18402,0.168681 0.18402,0.429369 0,0.96608 -0.36803,1.824818 -0.36803,0.843403 -0.99675,1.472121 -0.62872,0.628719 -1.47212,0.996749 -0.843404,0.368031 -1.809484,0.368031 -0.96608,0 -1.809483,-0.352696 -0.828068,-0.368031 -1.472121,-0.996749 -0.01533,0 -0.01533,-0.01534 -0.01534,-0.01533 -0.01534,-0.01533 -0.628718,-0.644054 -0.996749,-1.472122 -0.352695,-0.843403 -0.352695,-1.809483 0,-0.96608 0.36803,-1.809483 0.36803,-0.843403 0.996749,-1.472121 0.628719,-0.628719 1.472122,-0.996749 0.858737,-0.368031 1.824817,-0.368031 0.935411,0 1.778814,0.352696 0.8434,0.352696 1.50279,1.012084 0.18402,0.184015 0.18402,0.444703 0,0.245354 -0.18402,0.429369 l -5.229098,5.229099 q 0.414034,0.291357 0.904741,0.460038 0.490708,0.153346 1.042753,0.153346 0.705392,0 1.318774,-0.260689 0.62872,-0.276022 1.08876,-0.73606 0.47537,-0.475373 0.73606,-1.104092 0.27602,-0.628718 0.27602,-1.33411 0,-0.260688 0.16868,-0.429369 0.18402,-0.184015 0.44471,-0.184015 z"
               id="path3421"
               style="font-weight:bold;font-size:15.3346px;font-family:'DO 4 Brain';-inkscape-font-specification:'DO 4 Brain, Bold';text-align:center;text-anchor:middle;fill:#002255;stroke:#4d4d4d;stroke-width:0;stroke-linecap:round;stroke-linejoin:round" />
            <path
               d="m 109.39173,30.451354 q 0.96608,0 1.80948,0.368031 0.8434,0.36803 1.47212,0.996749 0.62872,0.628718 0.99675,1.472121 0.36803,0.843403 0.36803,1.809483 v 4.048335 q 0,0.260688 -0.18401,0.444703 -0.16868,0.168681 -0.42937,0.168681 -0.26069,0 -0.44471,-0.168681 -0.16868,-0.184015 -0.16868,-0.444703 v -4.048335 q 0,-0.705392 -0.27602,-1.318776 -0.26069,-0.628718 -0.73606,-1.088756 -0.46004,-0.475373 -1.08876,-0.736061 -0.61338,-0.276023 -1.31877,-0.276023 -0.70539,0 -1.33411,0.276023 -0.62872,0.260688 -1.10409,0.736061 -0.46004,0.460038 -0.73606,1.088756 -0.26069,0.613384 -0.26069,1.318776 v 4.048335 q 0,0.260688 -0.18402,0.444703 -0.16868,0.168681 -0.42937,0.168681 -0.26069,0 -0.4447,-0.168681 -0.16868,-0.184015 -0.16868,-0.444703 v -8.081335 q 0,-0.260688 0.16868,-0.429369 0.18401,-0.184015 0.4447,-0.184015 0.26069,0 0.42937,0.184015 0.18402,0.168681 0.18402,0.429369 v 0.889407 q 0.64405,-0.690057 1.51812,-1.088757 0.88941,-0.414034 1.91683,-0.414034 z"
               id="path3423"
               style="font-weight:bold;font-size:15.3346px;font-family:'DO 4 Brain';-inkscape-font-specification:'DO 4 Brain, Bold';text-align:center;text-anchor:middle;fill:#002255;stroke:#4d4d4d;stroke-width:0;stroke-linecap:round;stroke-linejoin:round" />
            <path
               d="m 121.6134,30.420685 q 0.26069,0 0.42937,0.184015 0.18401,0.184015 0.18401,0.444704 0,0.260688 -0.18401,0.444703 -0.16868,0.168681 -0.42937,0.168681 h -3.43495 v 7.483285 q 0,0.260688 -0.18402,0.444703 -0.16868,0.168681 -0.42936,0.168681 -0.26069,0 -0.44471,-0.168681 -0.16868,-0.184015 -0.16868,-0.444703 v -7.483285 h -1.05809 q -0.26068,0 -0.4447,-0.168681 -0.16868,-0.184015 -0.16868,-0.444703 0,-0.260689 0.16868,-0.444704 0.18402,-0.184015 0.4447,-0.184015 h 1.05809 v -3.373612 q 0,-0.260688 0.16868,-0.429369 0.18402,-0.184015 0.44471,-0.184015 0.26068,0 0.42936,0.184015 0.18402,0.168681 0.18402,0.429369 v 3.373612 z"
               id="path3425"
               style="font-weight:bold;font-size:15.3346px;font-family:'DO 4 Brain';-inkscape-font-specification:'DO 4 Brain, Bold';text-align:center;text-anchor:middle;fill:#002255;stroke:#4d4d4d;stroke-width:0;stroke-linecap:round;stroke-linejoin:round" />
          </g>
          <g
             id="Education"
             transform="matrix(-0.17400431,0.08029522,0.08029522,0.17400431,57.694156,20.753537)"
             style="opacity:1;stroke-width:23.0108">
            <path
               class="cls-1"
               d="m 24.5,34 v 0 C 15.94,34 9,30.154 9,24 V 14 h 31 v 10 c 0,5.171 -6.94,10 -15.5,10 z"
               id="path1140"
               style="fill:#203442;stroke-width:23.0108" />
            <path
               class="cls-2"
               d="M 46.171,9.991 27.3,0.764 a 7.518,7.518 0 0 0 -6.6,0 L 1.829,9.991 a 3.26,3.26 0 0 0 0.15,5.927 L 4.5,17 21.043,24.079 a 7.517,7.517 0 0 0 5.914,0 L 43.5,17 46.021,15.922 a 3.26,3.26 0 0 0 0.15,-5.931 z"
               id="path1142"
               style="fill:#4c5665;stroke-width:23.0108" />
            <path
               class="cls-3"
               d="M 40,38 A 1,1 0 0 1 39,37 V 19.361 L 24.918,12.14 a 1.0004744,1.0004744 0 1 1 0.914,-1.78 L 41,18.139 V 37 a 1,1 0 0 1 -1,1 z"
               id="path1144"
               style="fill:#ecf0f1;stroke-width:23.0108" />
            <ellipse
               class="cls-1"
               cx="24.5"
               cy="11"
               rx="4.5"
               ry="3"
               id="ellipse1146"
               style="fill:#203442;stroke-width:23.0108" />
            <circle
               class="cls-4"
               cx="40"
               cy="39"
               r="4"
               id="circle1148"
               style="fill:#face53;stroke-width:23.0108" />
          </g>
        </g>
      </g>
    </g>
    <rect
       style="fill:#f9f9f9;fill-opacity:1;stroke:#4d4d4d;stroke-width:0;stroke-linecap:round;stroke-linejoin:round"
       id="rect3583"
       width="2.5212517"
       height="7.8814696e-07"
       x="162.72791"
       y="33.088905"
       rx="6.1118174"
       ry="7.8814696e-07" />
  </g>
</svg>
